<svg xmlns="http://www.w3.org/2000/svg" width="129.5" height="40"  xmlns:v="https://vecta.io/nano"><path fill="#fff" stroke="#d4d8da" d="M4 .5h52A3.5 3.5 0 0 1 59.5 4v32a3.5 3.5 0 0 1-3.5 3.5H4A3.5 3.5 0 0 1 .5 36V4A3.5 3.5 0 0 1 4 .5z"/><linearGradient id="A" gradientUnits="userSpaceOnUse" x1="5" y1="20.222" x2="55.987" y2="20.222"><stop offset="0" stop-color="#1a1e5a"/><stop offset="1" stop-color="#00329e"/></linearGradient><path fill="url(#A)" d="M23.977 12.254l-6.54 15.975h-4.264L9.94 15.486c-.178-.8-.355-1.053-.96-1.416-.96-.545-2.56-1.053-3.98-1.343l.107-.472h6.86c.888 0 1.67.58 1.848 1.634l1.705 9.21 4.193-10.855h4.264v.01zM40.714 23c.035-4.212-5.686-4.43-5.65-6.317 0-.58.533-1.198 1.706-1.343.57-.073 2.168-.145 3.98.726l.71-3.377c-1.204-.456-2.48-.69-3.767-.69-3.98 0-6.788 2.178-6.823 5.265-.035 2.287 2 3.595 3.518 4.357 1.564.8 2.097 1.27 2.097 1.997 0 1.053-1.244 1.56-2.416 1.56-2.026.036-3.198-.545-4.158-1.017l-.746 3.45c.96.436 2.7.834 4.478.834 4.264 0 7.036-2.14 7.071-5.445h0zm10.556 5.23H55l-3.27-15.976h-3.447c-.782 0-1.422.472-1.706 1.162L40.5 28.193h4.23l.853-2.396h5.188l.499 2.433h0zm-4.513-5.664l2.132-5.99 1.208 5.99h-3.34zm-17.022-10.31l-3.34 15.975h-4.016l3.34-15.975h4.016z"/><path fill="#fff" stroke="#d4d8da" d="M69 .5h52a3.5 3.5 0 0 1 3.5 3.5v32a3.5 3.5 0 0 1-3.5 3.5H69a3.5 3.5 0 0 1-3.5-3.5V4A3.5 3.5 0 0 1 69 .5z"/><path fill="#231f20" d="M84.008 32.857v-1.723c.028-.574-.368-1.062-.935-1.1h-.142c-.368-.03-.736.172-.963.488-.198-.316-.538-.518-.906-.488-.312-.03-.623.143-.793.402v-.345h-.567v2.755h.595v-1.52c-.057-.344.198-.689.538-.717h.113c.397 0 .595.258.595.717v1.52h.595v-1.52c-.057-.344.198-.689.538-.717h.113c.397 0 .595.258.595.717v1.52h.623l.001.011zm8.801-2.726h-.963V29.3h-.596v.832h-.538v.545h.538v1.263c0 .631.255 1.004.936 1.004.254 0 .5-.086.735-.199l-.17-.518c-.17.086-.34.145-.5.145-.283 0-.397-.172-.397-.46v-1.263h.963v-.518h-.008zm5.013-.086c-.283 0-.567.143-.708.402v-.344h-.594v2.754h.595v-1.549c0-.461.198-.718.565-.718a1.58 1.58 0 0 1 .368.058l.17-.574c-.112 0-.255-.03-.397-.03l.001.001zm-7.592.287c-.336-.195-.718-.295-1.105-.287-.68 0-1.133.344-1.133.9 0 .459.34.717.935.803l.283.029c.312.058.479.144.479.287 0 .201-.227.345-.623.345-.312 0-.649-.086-.905-.287l-.283.46c.34.23.765.373 1.16.344.793 0 1.246-.373 1.246-.89s-.368-.746-.935-.832l-.283-.03c-.256-.029-.453-.086-.453-.258s.197-.316.5-.316.595.086.85.23l.255-.488.012-.01zm15.778-.287c-.283 0-.566.143-.708.402v-.344h-.595v2.754h.595v-1.549c0-.461.198-.718.566-.718.114 0 .255.03.37.058l.17-.574c-.114 0-.256-.03-.398-.029h0zm-7.592 1.435c-.027.774.566 1.405 1.303 1.435h.143c.35.028.697-.086.963-.315l-.283-.488a1.52 1.52 0 0 1-.708.258c-.481-.03-.821-.46-.793-.947a.86.86 0 0 1 .793-.803 1.08 1.08 0 0 1 .708.258l.283-.488a1.34 1.34 0 0 0-.963-.315c-.766-.058-1.389.545-1.445 1.29v.115h0zm5.523 0v-1.377h-.594v.344c-.199-.258-.5-.402-.851-.402a1.41 1.41 0 0 0-1.417 1.436 1.41 1.41 0 0 0 1.385 1.435h.032c.34 0 .649-.144.851-.401v.344h.594V31.48zm-2.209 0a.83.83 0 0 1 .877-.775c.453.029.793.43.766.9-.03.43-.37.774-.822.774s-.82-.344-.82-.803v-.086-.01zm-7.1-1.435c-.793 0-1.416.66-1.388 1.463s.652 1.436 1.445 1.406c.396.029.821-.115 1.133-.373l-.283-.43c-.227.172-.5.287-.793.287a.78.78 0 0 1-.822-.66h2.01v-.23c0-.901-.537-1.463-1.302-1.463h0zm0 .545c.368 0 .681.287.681.66h-1.416c.027-.373.367-.689.735-.66h0zm14.759.9v-2.469h-.568v1.436c-.197-.258-.51-.402-.85-.402-.793 0-1.416.631-1.416 1.436a1.41 1.41 0 0 0 1.416 1.435c.34 0 .65-.144.85-.401v.344h.568V31.48v.01zm.989.976c.03 0 .085 0 .114.03.027 0 .056.029.085.057s.056.057.056.086c.03.057.03.144 0 .2-.027.03-.027.058-.056.086s-.058.058-.085.058c-.03.029-.057.029-.114.029-.112 0-.198-.057-.254-.172-.03-.057-.03-.143 0-.199.028-.031.028-.058.056-.086s.057-.058.086-.058c.056-.03.084-.03.112-.031h0zm0 .488c.03 0 .058 0 .085-.03.03 0 .057-.029.057-.057a.19.19 0 0 0 0-.287l-.057-.057c-.027 0-.056-.03-.085-.03s-.056 0-.084.03c-.03 0-.058.029-.058.057-.084.086-.084.199 0 .287.029.029.058.029.058.057.028.03.056.03.084.03zm.03-.345c.027 0 .056 0 .085.031s.028.029.028.057 0 .029-.028.057-.03.03-.058.03l.086.086h-.058l-.085-.086h-.027v.086h-.057v-.27h.113v.009zm-.056.058v.058h.084v-.058h-.084zm-3.118-1.176a.83.83 0 0 1 .879-.775c.453.03.793.431.765.9-.028.43-.368.774-.819.774s-.822-.344-.822-.803c-.028-.029 0-.057 0-.086l-.003-.01zm-19.914 0v-1.378h-.594v.345c-.199-.258-.5-.401-.851-.401a1.41 1.41 0 0 0-1.416 1.435 1.41 1.41 0 0 0 1.416 1.435c.34 0 .649-.144.851-.402v.345h.594v-1.39.011zm-2.179 0a.83.83 0 0 1 .878-.775c.453.03.793.431.765.9-.028.43-.368.774-.82.774s-.822-.344-.822-.803v-.086l-.001-.01z"/><path fill="#ff5f00" d="M98.965,9.21h-8.923v16.24h8.923V9.21z"/><path fill="#eb001b" d="M90.607 17.332c0-3.156 1.445-6.17 3.91-8.12-4.447-3.53-10.85-2.755-14.333 1.75s-2.72 10.96 1.728 14.49c3.71 2.956 8.896 2.956 12.606 0-2.465-1.95-3.91-4.935-3.91-8.12h-.001z"/><path fill="#f79e1b" d="M111.003 17.333c0 5.7-4.56 10.33-10.198 10.33-2.287.003-4.506-.776-6.287-2.21 4.422-3.559 5.178-10.004 1.699-14.49a9.98 9.98 0 0 0-1.729-1.75c4.421-3.53 10.851-2.755 14.335 1.75 1.419 1.819 2.187 4.062 2.18 6.37h0zm-.963 6.397v-.345h.142v-.057h-.34v.057h.141v.345h.057 0zm.651 0v-.402h-.113l-.113.287-.113-.287h-.084v.402h.084v-.287l.113.258h.085l.113-.258v.315l.03-.03-.002.002z"/></svg>