<?xml version="1.0" encoding="utf-8"?>
<!-- Generator: Adobe Illustrator 16.0.0, SVG Export Plug-In . SVG Version: 6.00 Build 0)  -->
<!DOCTYPE svg PUBLIC "-//W3C//DTD SVG 1.1//EN" "http://www.w3.org/Graphics/SVG/1.1/DTD/svg11.dtd">
<svg version="1.1" id="Layer_1" xmlns="http://www.w3.org/2000/svg" xmlns:xlink="http://www.w3.org/1999/xlink" x="0px" y="0px"
	 width="40px" height="40px" viewBox="130 0 40 40" enable-background="new 130 0 40 40" xml:space="preserve">
<g>
	<path fill="#FFFFFF" stroke="#D4D8DA" d="M134,0.5h32c1.934,0,3.5,1.567,3.5,3.5v32c0,1.934-1.566,3.5-3.5,3.5h-32
		c-1.934,0-3.5-1.566-3.5-3.5V4C130.5,2.067,132.066,0.5,134,0.5z"/>
	<path fill="#006FCF" d="M136,6v28h27.633V6H136z"/>
	<defs>
		<filter id="Adobe_OpacityMaskFilter" filterUnits="userSpaceOnUse" x="136" y="14.68" width="27.66" height="11.468">
			<feColorMatrix  type="matrix" values="1 0 0 0 0  0 1 0 0 0  0 0 1 0 0  0 0 0 1 0"/>
		</filter>
	</defs>
	<mask maskUnits="userSpaceOnUse" x="136" y="14.68" width="27.66" height="11.468" id="A">
		<path fill="#FFFFFF" filter="url(#Adobe_OpacityMaskFilter)" d="M136,14.684v11.462h27.641V14.684H136z"/>
	</mask>
	<g mask="url(#A)">
		<path fill="#FFFFFF" d="M160.248,19.57h2.076v-4.888h-2.215v0.787l-0.49-0.787h-1.928v1l-0.436-1h-3.193
			c-0.156,0-0.305,0.01-0.444,0.035c-0.122,0.018-0.244,0.044-0.356,0.088c-0.088,0.027-0.184,0.062-0.263,0.106
			c-0.1,0.046-0.196,0.099-0.288,0.159v-0.39H142.29l-0.288,0.857l-0.288-0.857h-2.416v1l-0.437-1h-1.979L136,16.77v2.802h1.404
			l0.262-0.698h0.497l0.262,0.698h10.772v-0.716l0.539,0.716h2.975V19.21c0.08,0.053,0.157,0.097,0.236,0.133
			c0.082,0.038,0.166,0.07,0.253,0.097c0.104,0.035,0.21,0.062,0.313,0.08c0.167,0.032,0.336,0.046,0.506,0.044h1.78l0.263-0.698
			h0.496l0.262,0.698h2.983v-0.725l0.444,0.734V19.57z M163.633,25.846V21.26h-17.14l-0.437,0.629l-0.436-0.629h-4.928v4.889h4.899
			l0.429-0.637l0.444,0.637h3.07v-1.053h-0.026c0.354,0.002,0.706-0.062,1.038-0.186v1.236h2.146v-0.707l0.541,0.707h9.298
			c0.27,0,0.515-0.043,0.741-0.133c0.123-0.043,0.244-0.097,0.351-0.168H163.633z"/>
		<g>
			<defs>
				<filter id="Adobe_OpacityMaskFilter_1_" filterUnits="userSpaceOnUse" x="141.453" y="22.051" width="22.207" height="3.316">
					<feColorMatrix  type="matrix" values="1 0 0 0 0  0 1 0 0 0  0 0 1 0 0  0 0 0 1 0"/>
				</filter>
			</defs>
			<mask maskUnits="userSpaceOnUse" x="141.453" y="22.051" width="22.207" height="3.316" id="B">
				<path fill="#FFFFFF" filter="url(#Adobe_OpacityMaskFilter_1_)" d="M163.66,25.355v-3.295h-22.208v3.297h22.208V25.355z"/>
			</mask>
			<path mask="url(#B)" fill="#006FCF" d="M162.561,24.693h-1.674v0.664h1.647c0.707,0,1.126-0.434,1.126-1.053
				c0-0.592-0.376-0.937-1.012-0.937h-0.75c-0.185,0-0.314-0.124-0.314-0.318s0.13-0.327,0.314-0.327h1.412l0.287-0.672h-1.683
				c-0.706,0-1.125,0.434-1.125,1.025c0,0.6,0.392,0.955,1.012,0.955h0.75c0.183,0,0.322,0.123,0.322,0.318
				C162.884,24.561,162.744,24.693,162.561,24.693L162.561,24.693z M159.464,24.693h-1.666v0.664h1.65
				c0.706,0,1.125-0.434,1.125-1.053c0-0.592-0.375-0.937-1.013-0.937h-0.768c-0.184,0-0.314-0.124-0.314-0.318
				s0.131-0.327,0.314-0.327h1.413l0.288-0.672H158.8c-0.707,0-1.125,0.434-1.125,1.025c0,0.6,0.392,0.955,1.011,0.955h0.75
				c0.183,0,0.321,0.123,0.321,0.318c0.011,0.211-0.122,0.344-0.305,0.344H159.464z M157.318,22.725v-0.673H154.7v3.298h2.608
				v-0.664h-1.824v-0.662h1.781v-0.664h-1.781v-0.645h1.824v0.01H157.318z M152.958,22.734c0.28,0,0.427,0.186,0.427,0.406
				c0,0.23-0.148,0.407-0.427,0.407h-0.916v-0.813H152.958L152.958,22.734z M152.042,24.166h0.367l0.968,1.184h0.969l-1.082-1.22
				c0.514-0.07,0.893-0.515,0.881-1.034c0-0.619-0.437-1.043-1.125-1.043h-1.771v3.297h0.785v-1.184h0.01H152.042z M150.045,23.166
				c0,0.22-0.141,0.407-0.4,0.407h-0.933V22.76h0.933C149.915,22.76,150.045,22.938,150.045,23.166L150.045,23.166z M147.915,22.061
				v3.297h0.786V24.27h0.984c0.715,0,1.152-0.468,1.152-1.104c0-0.654-0.438-1.104-1.126-1.104H147.915L147.915,22.061z
				 M146.766,25.357h0.977l-1.309-1.662l1.301-1.635h-0.95l-0.804,1.043l-0.793-1.043h-0.969l1.301,1.653l-1.301,1.653h0.95
				l0.802-1.061l0.795,1.053V25.357z M144.061,22.725v-0.673h-2.607v3.298h2.607v-0.664h-1.822v-0.662h1.779v-0.664h-1.779v-0.645
				h1.822V22.725L144.061,22.725z"/>
			<path fill="#006FCF" d="M159.168,16.806l-0.01-0.274l0.166,0.274l1.246,1.97h0.916V15.48h-0.76v1.91l0.01,0.247l-0.147-0.247
				l-1.22-1.91h-0.96v3.297h0.76L159.168,16.806L159.168,16.806z M156.055,16.709l0.235-0.62l0.235,0.62l0.287,0.734h-1.047
				L156.055,16.709L156.055,16.709z M157.344,18.777h0.881l-1.388-3.297h-1.03l-1.396,3.297h0.83l0.271-0.707h1.553L157.344,18.777
				L157.344,18.777z M153.934,18.777h0.045l0.322-0.698h-0.236c-0.531,0-0.854-0.336-0.854-0.928v-0.044c0-0.52,0.287-0.9,0.846-0.9
				h0.846v-0.716h-0.916c-1.002,0-1.553,0.68-1.553,1.617v0.053c0,1,0.559,1.626,1.5,1.626V18.777z M151.161,18.777h0.784V15.48
				h-0.784V18.777z M149.521,16.152c0.279,0,0.427,0.186,0.427,0.407c0,0.23-0.148,0.406-0.427,0.406h-0.916v-0.813H149.521z
				 M148.605,17.592h0.365l0.971,1.184h0.977l-1.082-1.22c0.551-0.106,0.88-0.513,0.88-1.034c0-0.62-0.437-1.043-1.125-1.043h-1.771
				v3.297h0.785V17.592L148.605,17.592z M147.245,16.152V15.48h-2.601v3.297h2.608v-0.672h-1.832v-0.654h1.78v-0.663h-1.78v-0.645
				h1.823L147.245,16.152L147.245,16.152z M140.773,16.522l-0.018-0.893l0.898,3.147h0.707l0.897-3.13l-0.017,0.866v2.254h0.76
				V15.48h-1.38l-0.62,2.333l-0.62-2.333h-1.37v3.297h0.76v-2.254L140.773,16.522z M137.659,16.708l0.235-0.62l0.235,0.62
				l0.288,0.734h-1.046L137.659,16.708L137.659,16.708z M138.949,18.776h0.88l-1.396-3.297h-1.02l-1.395,3.297h0.828l0.27-0.707
				h1.552L138.949,18.776z"/>
		</g>
	</g>
</g>
</svg>
